<mxfile host="app.diagrams.net" modified="2021-07-13T09:16:16.377Z" agent="5.0 (Macintosh)" etag="2wG0mXjR04MhWn4WxtfE" version="14.8.5" type="github">
  <diagram id="6glGjibrxEW6So7hZ_gu" name="Page-1">
    <mxGraphModel dx="1186" dy="651" grid="1" gridSize="10" guides="1" tooltips="1" connect="1" arrows="1" fold="1" page="1" pageScale="1" pageWidth="827" pageHeight="1169" math="0" shadow="0">
      <root>
        <mxCell id="0" />
        <mxCell id="1" parent="0" />
        <mxCell id="qUIFOu5oReiOi_gFtP6k-1" value="" style="shape=table;startSize=0;container=1;collapsible=0;childLayout=tableLayout;" vertex="1" parent="1">
          <mxGeometry x="90" y="140" width="1160" height="370" as="geometry" />
        </mxCell>
        <mxCell id="qUIFOu5oReiOi_gFtP6k-2" value="" style="shape=partialRectangle;collapsible=0;dropTarget=0;pointerEvents=0;fillColor=none;top=0;left=0;bottom=0;right=0;points=[[0,0.5],[1,0.5]];portConstraint=eastwest;" vertex="1" parent="qUIFOu5oReiOi_gFtP6k-1">
          <mxGeometry width="1160" height="53" as="geometry" />
        </mxCell>
        <mxCell id="qUIFOu5oReiOi_gFtP6k-3" value="Item number" style="shape=partialRectangle;html=1;whiteSpace=wrap;connectable=0;overflow=hidden;fillColor=none;top=0;left=0;bottom=0;right=0;" vertex="1" parent="qUIFOu5oReiOi_gFtP6k-2">
          <mxGeometry width="95" height="53" as="geometry" />
        </mxCell>
        <mxCell id="qUIFOu5oReiOi_gFtP6k-4" value="Part number" style="shape=partialRectangle;html=1;whiteSpace=wrap;connectable=0;overflow=hidden;fillColor=none;top=0;left=0;bottom=0;right=0;" vertex="1" parent="qUIFOu5oReiOi_gFtP6k-2">
          <mxGeometry x="95" width="96" height="53" as="geometry" />
        </mxCell>
        <mxCell id="qUIFOu5oReiOi_gFtP6k-5" value="Item name" style="shape=partialRectangle;html=1;whiteSpace=wrap;connectable=0;overflow=hidden;fillColor=none;top=0;left=0;bottom=0;right=0;" vertex="1" parent="qUIFOu5oReiOi_gFtP6k-2">
          <mxGeometry x="191" width="95" height="53" as="geometry" />
        </mxCell>
        <mxCell id="qUIFOu5oReiOi_gFtP6k-6" value="Recyclable" style="shape=partialRectangle;html=1;whiteSpace=wrap;connectable=0;overflow=hidden;fillColor=none;top=0;left=0;bottom=0;right=0;" vertex="1" parent="qUIFOu5oReiOi_gFtP6k-2">
          <mxGeometry x="286" width="95" height="53" as="geometry" />
        </mxCell>
        <mxCell id="qUIFOu5oReiOi_gFtP6k-7" value="Non-Recyclable" style="shape=partialRectangle;html=1;whiteSpace=wrap;connectable=0;overflow=hidden;fillColor=none;top=0;left=0;bottom=0;right=0;" vertex="1" parent="qUIFOu5oReiOi_gFtP6k-2">
          <mxGeometry x="381" width="96" height="53" as="geometry" />
        </mxCell>
        <mxCell id="qUIFOu5oReiOi_gFtP6k-8" value="Conditionally recyclable" style="shape=partialRectangle;html=1;whiteSpace=wrap;connectable=0;overflow=hidden;fillColor=none;top=0;left=0;bottom=0;right=0;" vertex="1" parent="qUIFOu5oReiOi_gFtP6k-2">
          <mxGeometry x="477" width="96" height="53" as="geometry" />
        </mxCell>
        <mxCell id="qUIFOu5oReiOi_gFtP6k-9" value="Material&amp;nbsp; of disposable components" style="shape=partialRectangle;html=1;whiteSpace=wrap;connectable=0;overflow=hidden;fillColor=none;top=0;left=0;bottom=0;right=0;" vertex="1" parent="qUIFOu5oReiOi_gFtP6k-2">
          <mxGeometry x="573" width="127" height="53" as="geometry" />
        </mxCell>
        <mxCell id="qUIFOu5oReiOi_gFtP6k-10" value="How many tims the materials can be recycled" style="shape=partialRectangle;html=1;whiteSpace=wrap;connectable=0;overflow=hidden;fillColor=none;top=0;left=0;bottom=0;right=0;" vertex="1" parent="qUIFOu5oReiOi_gFtP6k-2">
          <mxGeometry x="700" width="110" height="53" as="geometry" />
        </mxCell>
        <mxCell id="qUIFOu5oReiOi_gFtP6k-11" value="How to recycle" style="shape=partialRectangle;html=1;whiteSpace=wrap;connectable=0;overflow=hidden;fillColor=none;top=0;left=0;bottom=0;right=0;" vertex="1" parent="qUIFOu5oReiOi_gFtP6k-2">
          <mxGeometry x="810" width="110" height="53" as="geometry" />
        </mxCell>
        <mxCell id="qUIFOu5oReiOi_gFtP6k-12" value="How to dipose" style="shape=partialRectangle;html=1;whiteSpace=wrap;connectable=0;overflow=hidden;fillColor=none;top=0;left=0;bottom=0;right=0;" vertex="1" parent="qUIFOu5oReiOi_gFtP6k-2">
          <mxGeometry x="920" width="120" height="53" as="geometry" />
        </mxCell>
        <mxCell id="qUIFOu5oReiOi_gFtP6k-13" value="How to conditionally recycle" style="shape=partialRectangle;html=1;whiteSpace=wrap;connectable=0;overflow=hidden;fillColor=none;top=0;left=0;bottom=0;right=0;" vertex="1" parent="qUIFOu5oReiOi_gFtP6k-2">
          <mxGeometry x="1040" width="120" height="53" as="geometry" />
        </mxCell>
        <mxCell id="qUIFOu5oReiOi_gFtP6k-14" style="shape=partialRectangle;collapsible=0;dropTarget=0;pointerEvents=0;fillColor=none;top=0;left=0;bottom=0;right=0;points=[[0,0.5],[1,0.5]];portConstraint=eastwest;" vertex="1" parent="qUIFOu5oReiOi_gFtP6k-1">
          <mxGeometry y="53" width="1160" height="53" as="geometry" />
        </mxCell>
        <mxCell id="qUIFOu5oReiOi_gFtP6k-15" value="1" style="shape=partialRectangle;html=1;whiteSpace=wrap;connectable=0;overflow=hidden;fillColor=none;top=0;left=0;bottom=0;right=0;" vertex="1" parent="qUIFOu5oReiOi_gFtP6k-14">
          <mxGeometry width="95" height="53" as="geometry" />
        </mxCell>
        <mxCell id="qUIFOu5oReiOi_gFtP6k-16" style="shape=partialRectangle;html=1;whiteSpace=wrap;connectable=0;overflow=hidden;fillColor=none;top=0;left=0;bottom=0;right=0;" vertex="1" parent="qUIFOu5oReiOi_gFtP6k-14">
          <mxGeometry x="95" width="96" height="53" as="geometry" />
        </mxCell>
        <mxCell id="qUIFOu5oReiOi_gFtP6k-17" style="shape=partialRectangle;html=1;whiteSpace=wrap;connectable=0;overflow=hidden;fillColor=none;top=0;left=0;bottom=0;right=0;" vertex="1" parent="qUIFOu5oReiOi_gFtP6k-14">
          <mxGeometry x="191" width="95" height="53" as="geometry" />
        </mxCell>
        <mxCell id="qUIFOu5oReiOi_gFtP6k-18" style="shape=partialRectangle;html=1;whiteSpace=wrap;connectable=0;overflow=hidden;fillColor=none;top=0;left=0;bottom=0;right=0;" vertex="1" parent="qUIFOu5oReiOi_gFtP6k-14">
          <mxGeometry x="286" width="95" height="53" as="geometry" />
        </mxCell>
        <mxCell id="qUIFOu5oReiOi_gFtP6k-19" value="" style="shape=partialRectangle;html=1;whiteSpace=wrap;connectable=0;overflow=hidden;fillColor=none;top=0;left=0;bottom=0;right=0;" vertex="1" parent="qUIFOu5oReiOi_gFtP6k-14">
          <mxGeometry x="381" width="96" height="53" as="geometry" />
        </mxCell>
        <mxCell id="qUIFOu5oReiOi_gFtP6k-20" style="shape=partialRectangle;html=1;whiteSpace=wrap;connectable=0;overflow=hidden;fillColor=none;top=0;left=0;bottom=0;right=0;" vertex="1" parent="qUIFOu5oReiOi_gFtP6k-14">
          <mxGeometry x="477" width="96" height="53" as="geometry" />
        </mxCell>
        <mxCell id="qUIFOu5oReiOi_gFtP6k-21" style="shape=partialRectangle;html=1;whiteSpace=wrap;connectable=0;overflow=hidden;fillColor=none;top=0;left=0;bottom=0;right=0;" vertex="1" parent="qUIFOu5oReiOi_gFtP6k-14">
          <mxGeometry x="573" width="127" height="53" as="geometry" />
        </mxCell>
        <mxCell id="qUIFOu5oReiOi_gFtP6k-22" style="shape=partialRectangle;html=1;whiteSpace=wrap;connectable=0;overflow=hidden;fillColor=none;top=0;left=0;bottom=0;right=0;" vertex="1" parent="qUIFOu5oReiOi_gFtP6k-14">
          <mxGeometry x="700" width="110" height="53" as="geometry" />
        </mxCell>
        <mxCell id="qUIFOu5oReiOi_gFtP6k-23" style="shape=partialRectangle;html=1;whiteSpace=wrap;connectable=0;overflow=hidden;fillColor=none;top=0;left=0;bottom=0;right=0;" vertex="1" parent="qUIFOu5oReiOi_gFtP6k-14">
          <mxGeometry x="810" width="110" height="53" as="geometry" />
        </mxCell>
        <mxCell id="qUIFOu5oReiOi_gFtP6k-24" style="shape=partialRectangle;html=1;whiteSpace=wrap;connectable=0;overflow=hidden;fillColor=none;top=0;left=0;bottom=0;right=0;" vertex="1" parent="qUIFOu5oReiOi_gFtP6k-14">
          <mxGeometry x="920" width="120" height="53" as="geometry" />
        </mxCell>
        <mxCell id="qUIFOu5oReiOi_gFtP6k-25" style="shape=partialRectangle;html=1;whiteSpace=wrap;connectable=0;overflow=hidden;fillColor=none;top=0;left=0;bottom=0;right=0;" vertex="1" parent="qUIFOu5oReiOi_gFtP6k-14">
          <mxGeometry x="1040" width="120" height="53" as="geometry" />
        </mxCell>
        <mxCell id="qUIFOu5oReiOi_gFtP6k-26" style="shape=partialRectangle;collapsible=0;dropTarget=0;pointerEvents=0;fillColor=none;top=0;left=0;bottom=0;right=0;points=[[0,0.5],[1,0.5]];portConstraint=eastwest;" vertex="1" parent="qUIFOu5oReiOi_gFtP6k-1">
          <mxGeometry y="106" width="1160" height="53" as="geometry" />
        </mxCell>
        <mxCell id="qUIFOu5oReiOi_gFtP6k-27" value="2" style="shape=partialRectangle;html=1;whiteSpace=wrap;connectable=0;overflow=hidden;fillColor=none;top=0;left=0;bottom=0;right=0;" vertex="1" parent="qUIFOu5oReiOi_gFtP6k-26">
          <mxGeometry width="95" height="53" as="geometry" />
        </mxCell>
        <mxCell id="qUIFOu5oReiOi_gFtP6k-28" style="shape=partialRectangle;html=1;whiteSpace=wrap;connectable=0;overflow=hidden;fillColor=none;top=0;left=0;bottom=0;right=0;" vertex="1" parent="qUIFOu5oReiOi_gFtP6k-26">
          <mxGeometry x="95" width="96" height="53" as="geometry" />
        </mxCell>
        <mxCell id="qUIFOu5oReiOi_gFtP6k-29" style="shape=partialRectangle;html=1;whiteSpace=wrap;connectable=0;overflow=hidden;fillColor=none;top=0;left=0;bottom=0;right=0;" vertex="1" parent="qUIFOu5oReiOi_gFtP6k-26">
          <mxGeometry x="191" width="95" height="53" as="geometry" />
        </mxCell>
        <mxCell id="qUIFOu5oReiOi_gFtP6k-30" style="shape=partialRectangle;html=1;whiteSpace=wrap;connectable=0;overflow=hidden;fillColor=none;top=0;left=0;bottom=0;right=0;" vertex="1" parent="qUIFOu5oReiOi_gFtP6k-26">
          <mxGeometry x="286" width="95" height="53" as="geometry" />
        </mxCell>
        <mxCell id="qUIFOu5oReiOi_gFtP6k-31" style="shape=partialRectangle;html=1;whiteSpace=wrap;connectable=0;overflow=hidden;fillColor=none;top=0;left=0;bottom=0;right=0;" vertex="1" parent="qUIFOu5oReiOi_gFtP6k-26">
          <mxGeometry x="381" width="96" height="53" as="geometry" />
        </mxCell>
        <mxCell id="qUIFOu5oReiOi_gFtP6k-32" style="shape=partialRectangle;html=1;whiteSpace=wrap;connectable=0;overflow=hidden;fillColor=none;top=0;left=0;bottom=0;right=0;" vertex="1" parent="qUIFOu5oReiOi_gFtP6k-26">
          <mxGeometry x="477" width="96" height="53" as="geometry" />
        </mxCell>
        <mxCell id="qUIFOu5oReiOi_gFtP6k-33" style="shape=partialRectangle;html=1;whiteSpace=wrap;connectable=0;overflow=hidden;fillColor=none;top=0;left=0;bottom=0;right=0;" vertex="1" parent="qUIFOu5oReiOi_gFtP6k-26">
          <mxGeometry x="573" width="127" height="53" as="geometry" />
        </mxCell>
        <mxCell id="qUIFOu5oReiOi_gFtP6k-34" style="shape=partialRectangle;html=1;whiteSpace=wrap;connectable=0;overflow=hidden;fillColor=none;top=0;left=0;bottom=0;right=0;" vertex="1" parent="qUIFOu5oReiOi_gFtP6k-26">
          <mxGeometry x="700" width="110" height="53" as="geometry" />
        </mxCell>
        <mxCell id="qUIFOu5oReiOi_gFtP6k-35" style="shape=partialRectangle;html=1;whiteSpace=wrap;connectable=0;overflow=hidden;fillColor=none;top=0;left=0;bottom=0;right=0;" vertex="1" parent="qUIFOu5oReiOi_gFtP6k-26">
          <mxGeometry x="810" width="110" height="53" as="geometry" />
        </mxCell>
        <mxCell id="qUIFOu5oReiOi_gFtP6k-36" style="shape=partialRectangle;html=1;whiteSpace=wrap;connectable=0;overflow=hidden;fillColor=none;top=0;left=0;bottom=0;right=0;" vertex="1" parent="qUIFOu5oReiOi_gFtP6k-26">
          <mxGeometry x="920" width="120" height="53" as="geometry" />
        </mxCell>
        <mxCell id="qUIFOu5oReiOi_gFtP6k-37" style="shape=partialRectangle;html=1;whiteSpace=wrap;connectable=0;overflow=hidden;fillColor=none;top=0;left=0;bottom=0;right=0;" vertex="1" parent="qUIFOu5oReiOi_gFtP6k-26">
          <mxGeometry x="1040" width="120" height="53" as="geometry" />
        </mxCell>
        <mxCell id="qUIFOu5oReiOi_gFtP6k-38" value="" style="shape=partialRectangle;collapsible=0;dropTarget=0;pointerEvents=0;fillColor=none;top=0;left=0;bottom=0;right=0;points=[[0,0.5],[1,0.5]];portConstraint=eastwest;" vertex="1" parent="qUIFOu5oReiOi_gFtP6k-1">
          <mxGeometry y="159" width="1160" height="52" as="geometry" />
        </mxCell>
        <mxCell id="qUIFOu5oReiOi_gFtP6k-39" value="3" style="shape=partialRectangle;html=1;whiteSpace=wrap;connectable=0;overflow=hidden;fillColor=none;top=0;left=0;bottom=0;right=0;" vertex="1" parent="qUIFOu5oReiOi_gFtP6k-38">
          <mxGeometry width="95" height="52" as="geometry" />
        </mxCell>
        <mxCell id="qUIFOu5oReiOi_gFtP6k-40" value="" style="shape=partialRectangle;html=1;whiteSpace=wrap;connectable=0;overflow=hidden;fillColor=none;top=0;left=0;bottom=0;right=0;" vertex="1" parent="qUIFOu5oReiOi_gFtP6k-38">
          <mxGeometry x="95" width="96" height="52" as="geometry" />
        </mxCell>
        <mxCell id="qUIFOu5oReiOi_gFtP6k-41" value="" style="shape=partialRectangle;html=1;whiteSpace=wrap;connectable=0;overflow=hidden;fillColor=none;top=0;left=0;bottom=0;right=0;" vertex="1" parent="qUIFOu5oReiOi_gFtP6k-38">
          <mxGeometry x="191" width="95" height="52" as="geometry" />
        </mxCell>
        <mxCell id="qUIFOu5oReiOi_gFtP6k-42" value="" style="shape=partialRectangle;html=1;whiteSpace=wrap;connectable=0;overflow=hidden;fillColor=none;top=0;left=0;bottom=0;right=0;" vertex="1" parent="qUIFOu5oReiOi_gFtP6k-38">
          <mxGeometry x="286" width="95" height="52" as="geometry" />
        </mxCell>
        <mxCell id="qUIFOu5oReiOi_gFtP6k-43" value="" style="shape=partialRectangle;html=1;whiteSpace=wrap;connectable=0;overflow=hidden;fillColor=none;top=0;left=0;bottom=0;right=0;" vertex="1" parent="qUIFOu5oReiOi_gFtP6k-38">
          <mxGeometry x="381" width="96" height="52" as="geometry" />
        </mxCell>
        <mxCell id="qUIFOu5oReiOi_gFtP6k-44" value="" style="shape=partialRectangle;html=1;whiteSpace=wrap;connectable=0;overflow=hidden;fillColor=none;top=0;left=0;bottom=0;right=0;" vertex="1" parent="qUIFOu5oReiOi_gFtP6k-38">
          <mxGeometry x="477" width="96" height="52" as="geometry" />
        </mxCell>
        <mxCell id="qUIFOu5oReiOi_gFtP6k-45" value="" style="shape=partialRectangle;html=1;whiteSpace=wrap;connectable=0;overflow=hidden;fillColor=none;top=0;left=0;bottom=0;right=0;" vertex="1" parent="qUIFOu5oReiOi_gFtP6k-38">
          <mxGeometry x="573" width="127" height="52" as="geometry" />
        </mxCell>
        <mxCell id="qUIFOu5oReiOi_gFtP6k-46" value="" style="shape=partialRectangle;html=1;whiteSpace=wrap;connectable=0;overflow=hidden;fillColor=none;top=0;left=0;bottom=0;right=0;" vertex="1" parent="qUIFOu5oReiOi_gFtP6k-38">
          <mxGeometry x="700" width="110" height="52" as="geometry" />
        </mxCell>
        <mxCell id="qUIFOu5oReiOi_gFtP6k-47" value="" style="shape=partialRectangle;html=1;whiteSpace=wrap;connectable=0;overflow=hidden;fillColor=none;top=0;left=0;bottom=0;right=0;" vertex="1" parent="qUIFOu5oReiOi_gFtP6k-38">
          <mxGeometry x="810" width="110" height="52" as="geometry" />
        </mxCell>
        <mxCell id="qUIFOu5oReiOi_gFtP6k-48" value="" style="shape=partialRectangle;html=1;whiteSpace=wrap;connectable=0;overflow=hidden;fillColor=none;top=0;left=0;bottom=0;right=0;" vertex="1" parent="qUIFOu5oReiOi_gFtP6k-38">
          <mxGeometry x="920" width="120" height="52" as="geometry" />
        </mxCell>
        <mxCell id="qUIFOu5oReiOi_gFtP6k-49" value="" style="shape=partialRectangle;html=1;whiteSpace=wrap;connectable=0;overflow=hidden;fillColor=none;top=0;left=0;bottom=0;right=0;" vertex="1" parent="qUIFOu5oReiOi_gFtP6k-38">
          <mxGeometry x="1040" width="120" height="52" as="geometry" />
        </mxCell>
        <mxCell id="qUIFOu5oReiOi_gFtP6k-50" value="" style="shape=partialRectangle;collapsible=0;dropTarget=0;pointerEvents=0;fillColor=none;top=0;left=0;bottom=0;right=0;points=[[0,0.5],[1,0.5]];portConstraint=eastwest;" vertex="1" parent="qUIFOu5oReiOi_gFtP6k-1">
          <mxGeometry y="211" width="1160" height="53" as="geometry" />
        </mxCell>
        <mxCell id="qUIFOu5oReiOi_gFtP6k-51" value="4" style="shape=partialRectangle;html=1;whiteSpace=wrap;connectable=0;overflow=hidden;fillColor=none;top=0;left=0;bottom=0;right=0;" vertex="1" parent="qUIFOu5oReiOi_gFtP6k-50">
          <mxGeometry width="95" height="53" as="geometry" />
        </mxCell>
        <mxCell id="qUIFOu5oReiOi_gFtP6k-52" value="" style="shape=partialRectangle;html=1;whiteSpace=wrap;connectable=0;overflow=hidden;fillColor=none;top=0;left=0;bottom=0;right=0;" vertex="1" parent="qUIFOu5oReiOi_gFtP6k-50">
          <mxGeometry x="95" width="96" height="53" as="geometry" />
        </mxCell>
        <mxCell id="qUIFOu5oReiOi_gFtP6k-53" value="" style="shape=partialRectangle;html=1;whiteSpace=wrap;connectable=0;overflow=hidden;fillColor=none;top=0;left=0;bottom=0;right=0;" vertex="1" parent="qUIFOu5oReiOi_gFtP6k-50">
          <mxGeometry x="191" width="95" height="53" as="geometry" />
        </mxCell>
        <mxCell id="qUIFOu5oReiOi_gFtP6k-54" value="" style="shape=partialRectangle;html=1;whiteSpace=wrap;connectable=0;overflow=hidden;fillColor=none;top=0;left=0;bottom=0;right=0;" vertex="1" parent="qUIFOu5oReiOi_gFtP6k-50">
          <mxGeometry x="286" width="95" height="53" as="geometry" />
        </mxCell>
        <mxCell id="qUIFOu5oReiOi_gFtP6k-55" value="" style="shape=partialRectangle;html=1;whiteSpace=wrap;connectable=0;overflow=hidden;fillColor=none;top=0;left=0;bottom=0;right=0;" vertex="1" parent="qUIFOu5oReiOi_gFtP6k-50">
          <mxGeometry x="381" width="96" height="53" as="geometry" />
        </mxCell>
        <mxCell id="qUIFOu5oReiOi_gFtP6k-56" value="" style="shape=partialRectangle;html=1;whiteSpace=wrap;connectable=0;overflow=hidden;fillColor=none;top=0;left=0;bottom=0;right=0;" vertex="1" parent="qUIFOu5oReiOi_gFtP6k-50">
          <mxGeometry x="477" width="96" height="53" as="geometry" />
        </mxCell>
        <mxCell id="qUIFOu5oReiOi_gFtP6k-57" value="" style="shape=partialRectangle;html=1;whiteSpace=wrap;connectable=0;overflow=hidden;fillColor=none;top=0;left=0;bottom=0;right=0;" vertex="1" parent="qUIFOu5oReiOi_gFtP6k-50">
          <mxGeometry x="573" width="127" height="53" as="geometry" />
        </mxCell>
        <mxCell id="qUIFOu5oReiOi_gFtP6k-58" value="" style="shape=partialRectangle;html=1;whiteSpace=wrap;connectable=0;overflow=hidden;fillColor=none;top=0;left=0;bottom=0;right=0;" vertex="1" parent="qUIFOu5oReiOi_gFtP6k-50">
          <mxGeometry x="700" width="110" height="53" as="geometry" />
        </mxCell>
        <mxCell id="qUIFOu5oReiOi_gFtP6k-59" value="" style="shape=partialRectangle;html=1;whiteSpace=wrap;connectable=0;overflow=hidden;fillColor=none;top=0;left=0;bottom=0;right=0;" vertex="1" parent="qUIFOu5oReiOi_gFtP6k-50">
          <mxGeometry x="810" width="110" height="53" as="geometry" />
        </mxCell>
        <mxCell id="qUIFOu5oReiOi_gFtP6k-60" value="" style="shape=partialRectangle;html=1;whiteSpace=wrap;connectable=0;overflow=hidden;fillColor=none;top=0;left=0;bottom=0;right=0;" vertex="1" parent="qUIFOu5oReiOi_gFtP6k-50">
          <mxGeometry x="920" width="120" height="53" as="geometry" />
        </mxCell>
        <mxCell id="qUIFOu5oReiOi_gFtP6k-61" value="" style="shape=partialRectangle;html=1;whiteSpace=wrap;connectable=0;overflow=hidden;fillColor=none;top=0;left=0;bottom=0;right=0;" vertex="1" parent="qUIFOu5oReiOi_gFtP6k-50">
          <mxGeometry x="1040" width="120" height="53" as="geometry" />
        </mxCell>
        <mxCell id="qUIFOu5oReiOi_gFtP6k-62" value="" style="shape=partialRectangle;collapsible=0;dropTarget=0;pointerEvents=0;fillColor=none;top=0;left=0;bottom=0;right=0;points=[[0,0.5],[1,0.5]];portConstraint=eastwest;" vertex="1" parent="qUIFOu5oReiOi_gFtP6k-1">
          <mxGeometry y="264" width="1160" height="53" as="geometry" />
        </mxCell>
        <mxCell id="qUIFOu5oReiOi_gFtP6k-63" value="5" style="shape=partialRectangle;html=1;whiteSpace=wrap;connectable=0;overflow=hidden;fillColor=none;top=0;left=0;bottom=0;right=0;" vertex="1" parent="qUIFOu5oReiOi_gFtP6k-62">
          <mxGeometry width="95" height="53" as="geometry" />
        </mxCell>
        <mxCell id="qUIFOu5oReiOi_gFtP6k-64" value="" style="shape=partialRectangle;html=1;whiteSpace=wrap;connectable=0;overflow=hidden;fillColor=none;top=0;left=0;bottom=0;right=0;" vertex="1" parent="qUIFOu5oReiOi_gFtP6k-62">
          <mxGeometry x="95" width="96" height="53" as="geometry" />
        </mxCell>
        <mxCell id="qUIFOu5oReiOi_gFtP6k-65" value="" style="shape=partialRectangle;html=1;whiteSpace=wrap;connectable=0;overflow=hidden;fillColor=none;top=0;left=0;bottom=0;right=0;" vertex="1" parent="qUIFOu5oReiOi_gFtP6k-62">
          <mxGeometry x="191" width="95" height="53" as="geometry" />
        </mxCell>
        <mxCell id="qUIFOu5oReiOi_gFtP6k-66" value="" style="shape=partialRectangle;html=1;whiteSpace=wrap;connectable=0;overflow=hidden;fillColor=none;top=0;left=0;bottom=0;right=0;" vertex="1" parent="qUIFOu5oReiOi_gFtP6k-62">
          <mxGeometry x="286" width="95" height="53" as="geometry" />
        </mxCell>
        <mxCell id="qUIFOu5oReiOi_gFtP6k-67" value="" style="shape=partialRectangle;html=1;whiteSpace=wrap;connectable=0;overflow=hidden;fillColor=none;top=0;left=0;bottom=0;right=0;" vertex="1" parent="qUIFOu5oReiOi_gFtP6k-62">
          <mxGeometry x="381" width="96" height="53" as="geometry" />
        </mxCell>
        <mxCell id="qUIFOu5oReiOi_gFtP6k-68" value="" style="shape=partialRectangle;html=1;whiteSpace=wrap;connectable=0;overflow=hidden;fillColor=none;top=0;left=0;bottom=0;right=0;" vertex="1" parent="qUIFOu5oReiOi_gFtP6k-62">
          <mxGeometry x="477" width="96" height="53" as="geometry" />
        </mxCell>
        <mxCell id="qUIFOu5oReiOi_gFtP6k-69" value="" style="shape=partialRectangle;html=1;whiteSpace=wrap;connectable=0;overflow=hidden;fillColor=none;top=0;left=0;bottom=0;right=0;" vertex="1" parent="qUIFOu5oReiOi_gFtP6k-62">
          <mxGeometry x="573" width="127" height="53" as="geometry" />
        </mxCell>
        <mxCell id="qUIFOu5oReiOi_gFtP6k-70" value="" style="shape=partialRectangle;html=1;whiteSpace=wrap;connectable=0;overflow=hidden;fillColor=none;top=0;left=0;bottom=0;right=0;" vertex="1" parent="qUIFOu5oReiOi_gFtP6k-62">
          <mxGeometry x="700" width="110" height="53" as="geometry" />
        </mxCell>
        <mxCell id="qUIFOu5oReiOi_gFtP6k-71" value="" style="shape=partialRectangle;html=1;whiteSpace=wrap;connectable=0;overflow=hidden;fillColor=none;top=0;left=0;bottom=0;right=0;" vertex="1" parent="qUIFOu5oReiOi_gFtP6k-62">
          <mxGeometry x="810" width="110" height="53" as="geometry" />
        </mxCell>
        <mxCell id="qUIFOu5oReiOi_gFtP6k-72" value="" style="shape=partialRectangle;html=1;whiteSpace=wrap;connectable=0;overflow=hidden;fillColor=none;top=0;left=0;bottom=0;right=0;" vertex="1" parent="qUIFOu5oReiOi_gFtP6k-62">
          <mxGeometry x="920" width="120" height="53" as="geometry" />
        </mxCell>
        <mxCell id="qUIFOu5oReiOi_gFtP6k-73" value="" style="shape=partialRectangle;html=1;whiteSpace=wrap;connectable=0;overflow=hidden;fillColor=none;top=0;left=0;bottom=0;right=0;" vertex="1" parent="qUIFOu5oReiOi_gFtP6k-62">
          <mxGeometry x="1040" width="120" height="53" as="geometry" />
        </mxCell>
        <mxCell id="qUIFOu5oReiOi_gFtP6k-74" value="" style="shape=partialRectangle;collapsible=0;dropTarget=0;pointerEvents=0;fillColor=none;top=0;left=0;bottom=0;right=0;points=[[0,0.5],[1,0.5]];portConstraint=eastwest;" vertex="1" parent="qUIFOu5oReiOi_gFtP6k-1">
          <mxGeometry y="317" width="1160" height="53" as="geometry" />
        </mxCell>
        <mxCell id="qUIFOu5oReiOi_gFtP6k-75" value="6" style="shape=partialRectangle;html=1;whiteSpace=wrap;connectable=0;overflow=hidden;fillColor=none;top=0;left=0;bottom=0;right=0;" vertex="1" parent="qUIFOu5oReiOi_gFtP6k-74">
          <mxGeometry width="95" height="53" as="geometry" />
        </mxCell>
        <mxCell id="qUIFOu5oReiOi_gFtP6k-76" value="" style="shape=partialRectangle;html=1;whiteSpace=wrap;connectable=0;overflow=hidden;fillColor=none;top=0;left=0;bottom=0;right=0;" vertex="1" parent="qUIFOu5oReiOi_gFtP6k-74">
          <mxGeometry x="95" width="96" height="53" as="geometry" />
        </mxCell>
        <mxCell id="qUIFOu5oReiOi_gFtP6k-77" value="" style="shape=partialRectangle;html=1;whiteSpace=wrap;connectable=0;overflow=hidden;fillColor=none;top=0;left=0;bottom=0;right=0;" vertex="1" parent="qUIFOu5oReiOi_gFtP6k-74">
          <mxGeometry x="191" width="95" height="53" as="geometry" />
        </mxCell>
        <mxCell id="qUIFOu5oReiOi_gFtP6k-78" value="" style="shape=partialRectangle;html=1;whiteSpace=wrap;connectable=0;overflow=hidden;fillColor=none;top=0;left=0;bottom=0;right=0;" vertex="1" parent="qUIFOu5oReiOi_gFtP6k-74">
          <mxGeometry x="286" width="95" height="53" as="geometry" />
        </mxCell>
        <mxCell id="qUIFOu5oReiOi_gFtP6k-79" value="" style="shape=partialRectangle;html=1;whiteSpace=wrap;connectable=0;overflow=hidden;fillColor=none;top=0;left=0;bottom=0;right=0;" vertex="1" parent="qUIFOu5oReiOi_gFtP6k-74">
          <mxGeometry x="381" width="96" height="53" as="geometry" />
        </mxCell>
        <mxCell id="qUIFOu5oReiOi_gFtP6k-80" value="" style="shape=partialRectangle;html=1;whiteSpace=wrap;connectable=0;overflow=hidden;fillColor=none;top=0;left=0;bottom=0;right=0;" vertex="1" parent="qUIFOu5oReiOi_gFtP6k-74">
          <mxGeometry x="477" width="96" height="53" as="geometry" />
        </mxCell>
        <mxCell id="qUIFOu5oReiOi_gFtP6k-81" value="" style="shape=partialRectangle;html=1;whiteSpace=wrap;connectable=0;overflow=hidden;fillColor=none;top=0;left=0;bottom=0;right=0;" vertex="1" parent="qUIFOu5oReiOi_gFtP6k-74">
          <mxGeometry x="573" width="127" height="53" as="geometry" />
        </mxCell>
        <mxCell id="qUIFOu5oReiOi_gFtP6k-82" value="" style="shape=partialRectangle;html=1;whiteSpace=wrap;connectable=0;overflow=hidden;fillColor=none;top=0;left=0;bottom=0;right=0;" vertex="1" parent="qUIFOu5oReiOi_gFtP6k-74">
          <mxGeometry x="700" width="110" height="53" as="geometry" />
        </mxCell>
        <mxCell id="qUIFOu5oReiOi_gFtP6k-83" value="" style="shape=partialRectangle;html=1;whiteSpace=wrap;connectable=0;overflow=hidden;fillColor=none;top=0;left=0;bottom=0;right=0;" vertex="1" parent="qUIFOu5oReiOi_gFtP6k-74">
          <mxGeometry x="810" width="110" height="53" as="geometry" />
        </mxCell>
        <mxCell id="qUIFOu5oReiOi_gFtP6k-84" value="" style="shape=partialRectangle;html=1;whiteSpace=wrap;connectable=0;overflow=hidden;fillColor=none;top=0;left=0;bottom=0;right=0;" vertex="1" parent="qUIFOu5oReiOi_gFtP6k-74">
          <mxGeometry x="920" width="120" height="53" as="geometry" />
        </mxCell>
        <mxCell id="qUIFOu5oReiOi_gFtP6k-85" value="" style="shape=partialRectangle;html=1;whiteSpace=wrap;connectable=0;overflow=hidden;fillColor=none;top=0;left=0;bottom=0;right=0;" vertex="1" parent="qUIFOu5oReiOi_gFtP6k-74">
          <mxGeometry x="1040" width="120" height="53" as="geometry" />
        </mxCell>
      </root>
    </mxGraphModel>
  </diagram>
</mxfile>
